HIERARCHY
ROOT Hips
{
	OFFSET 0.00000 0.00000 0.00000
	CHANNELS 6 Xposition Yposition Zposition Zrotation Yrotation Xrotation 
	JOINT LHipJoint
	{
		OFFSET 0 0 0
		CHANNELS 3 Zrotation Yrotation Xrotation
		JOINT LeftHip
		{
			OFFSET 1.41496 -1.84582 0.78394
			CHANNELS 3 Zrotation Yrotation Xrotation
			JOINT LeftKnee
			{
				OFFSET 2.58040 -7.08960 0.00000
				CHANNELS 3 Zrotation Yrotation Xrotation
				JOINT LeftAnkle
				{
					OFFSET 2.64719 -7.27309 0.00000
					CHANNELS 3 Zrotation Yrotation Xrotation
					JOINT LeftToe
					{
						OFFSET 0.20718 -0.56921 2.20259
						CHANNELS 3 Zrotation Yrotation Xrotation
						End Site
						{
							OFFSET 0.00000 -0.00000 1.14243
						}
					}
				}
			}
		}
	}
	JOINT RHipJoint
	{
		OFFSET 0 0 0
		CHANNELS 3 Zrotation Yrotation Xrotation
		JOINT RightHip
		{
			OFFSET -1.40551 -1.84582 0.78394
			CHANNELS 3 Zrotation Yrotation Xrotation
			JOINT RightKnee
			{
				OFFSET -2.56572 -7.04926 0.00000
				CHANNELS 3 Zrotation Yrotation Xrotation
				JOINT RightAnkle
				{
					OFFSET -2.57974 -7.08778 0.00000
					CHANNELS 3 Zrotation Yrotation Xrotation
					JOINT RightToe
					{
						OFFSET -0.26704 -0.73369 2.20815
						CHANNELS 3 Zrotation Yrotation Xrotation
						End Site
						{
							OFFSET -0.00000 -0.00000 1.16246
						}
					}
				}
			}
		}
	}
	JOINT lowerback
	{
		OFFSET 0 0 0
		CHANNELS 3 Zrotation Yrotation Xrotation
		JOINT Chest
		{
			OFFSET -0.04690 2.05196 -0.07017
			CHANNELS 3 Zrotation Yrotation Xrotation
			JOINT Chest2
			{
				OFFSET 0.04085 2.05260 0.00800
				CHANNELS 3 Zrotation Yrotation Xrotation
				JOINT lowerneck
				{
					OFFSET 0 0 0
					CHANNELS 3 Zrotation Yrotation Xrotation
					JOINT Neck
					{
						OFFSET -0.03582 1.80995 0.19301
						CHANNELS 3 Zrotation Yrotation Xrotation
						JOINT Head
						{
							OFFSET 0.00952 1.80195 -0.36389
							CHANNELS 3 Zrotation Yrotation Xrotation
							End Site
							{
								OFFSET 0.00392 1.85062 -0.14494
							}
						}
					}
				}
				JOINT LeftCollar
				{
					OFFSET 0 0 0
					CHANNELS 3 Zrotation Yrotation Xrotation
					JOINT LeftShoulder
					{
						OFFSET 3.55224 1.39726 -0.13667
CHANNELS 3 Zrotation Xrotation Yrotation
						JOINT LeftElbow
						{
OFFSET 0 -5.145070 -0.000000
CHANNELS 3 Zrotation Xrotation Yrotation
							JOINT LeftWrist
							{
OFFSET 0 -3.506460 0.000000
CHANNELS 3 Zrotation Xrotation Yrotation
								JOINT lhand
								{
									OFFSET 0 0 0
CHANNELS 3 Zrotation Xrotation Yrotation
									JOINT LFingers
									{
OFFSET 0 -0.629970 0.000000
CHANNELS 3 Zrotation Xrotation Yrotation
										End Site
										{
OFFSET 0 -0.507900 0.000000
										}
									}
								}
								JOINT LThumb
								{
OFFSET 0 0.000000 0.000000
CHANNELS 3 Zrotation Xrotation Yrotation
									End Site
									{
OFFSET 0 -0.515650 0.515650
									}
								}
							}
						}
					}
				}
				JOINT RightCollar
				{
					OFFSET 0 0 0
					CHANNELS 3 Zrotation Yrotation Xrotation
					JOINT RightShoulder
					{
						OFFSET -3.06467 1.61290 -0.28813
CHANNELS 3 Zrotation Xrotation Yrotation
						JOINT RightElbow
						{
OFFSET 0 -5.232000 -0.000000
CHANNELS 3 Zrotation Xrotation Yrotation
							JOINT RightWrist
							{
OFFSET 0 -3.656410 0.000000
CHANNELS 3 Zrotation Xrotation Yrotation
								JOINT rhand
								{
									OFFSET 0 0 0
CHANNELS 3 Zrotation Xrotation Yrotation
									JOINT RFingers
									{
OFFSET 0 -0.656810 0.000000
CHANNELS 3 Zrotation Xrotation Yrotation
										End Site
										{
OFFSET 0 -0.529530 0.000000
										}
									}
								}
								JOINT RThumb
								{
OFFSET 0 0.000000 0.000000
CHANNELS 3 Zrotation Xrotation Yrotation
									End Site
									{
OFFSET 0 -0.537620 0.537620
									}
								}
							}
						}
					}
				}
			}
		}
	}
}
MOTION
Frames: 12
Frame Time: 0.008333333333333333
-0.732042 20.664650 -7.047031 -0.849874 2.710345 4.606346 0.000000 0.000000 0.000000 -20.471342 -7.670867 -23.135199 16.305258 19.661495 79.136154 -0.013670 -3.444137 4.118996 0.109573 -2.133218 -5.873895 0.000000 0.000000 0.000000 16.795124 8.743555 -47.811094 -9.122634 -16.885952 56.513331 -0.311612 0.900072 -10.257899 -1.437264 7.578020 -21.440300 -0.639464 -2.268007 17.542294 3.264329 -2.835878 2.009382 4.545519 -1.303664 -7.462364 0.052380 0.761728 -19.007899 -2.945270 1.554814 13.930886 -0.796772 0.455707 7.425533 0.000000 0.000000 0.000000 7.866124 17.318388 -57.948814 122.518223 -55.594315 87.744175 23.565706 -18.332233 17.294210 0.000000 0.000000 0.000000 -7.125000 0.000000 0.000000 -2.870505 11.236275 -2.259157 0.000000 0.000000 0.000000 -3.236431 28.971665 24.292313 -96.619682 -59.833394 -65.729603 -27.643883 -6.827722 -5.762101 0.000000 0.000000 0.000000 7.125000 0.000000 0.000000 -0.690374 23.481239 -0.358113
-0.748525 20.681951 -6.899293 -1.266422 2.785236 4.369039 0.000000 0.000000 0.000000 -19.733025 -7.612800 -23.999798 16.815973 19.741086 80.647661 -0.023410 -3.559010 3.619587 0.103920 -2.076854 -5.718085 0.000000 0.000000 0.000000 17.531772 8.587064 -46.906683 -9.100701 -16.872057 56.437793 -0.336235 0.754615 -10.700296 -1.386792 7.448059 -21.051099 -0.342591 -2.188621 17.726881 3.401986 -2.659634 2.043745 4.493957 -1.223392 -7.546893 -0.034261 0.662385 -18.960696 -2.914210 1.436841 13.915458 -0.786317 0.398322 7.409799 0.000000 0.000000 0.000000 7.829173 17.585563 -57.650443 121.597669 -55.857744 86.982325 23.676118 -18.172098 17.249630 0.000000 0.000000 0.000000 -7.125000 0.000000 0.000000 -2.794116 11.268424 -2.197072 0.000000 0.000000 0.000000 -3.120093 28.495994 24.219738 -96.338645 -59.846983 -65.486608 -27.645450 -6.809365 -5.631902 0.000000 0.000000 0.000000 7.125000 0.000000 0.000000 -0.697321 23.627717 -0.359339
-0.765009 20.699252 -6.751554 -1.682971 2.860127 4.131731 0.000000 0.000000 0.000000 -18.994709 -7.554733 -24.864397 17.326688 19.820677 82.159168 -0.033151 -3.673884 3.120179 0.098266 -2.020490 -5.562276 0.000000 0.000000 0.000000 18.268419 8.430573 -46.002272 -9.078769 -16.858162 56.362255 -0.360858 0.609159 -11.142693 -1.336320 7.318098 -20.661898 -0.045718 -2.109234 17.911469 3.539644 -2.483391 2.078108 4.442395 -1.143121 -7.631422 -0.120901 0.563041 -18.913493 -2.883151 1.318868 13.900031 -0.775861 0.340936 7.394064 0.000000 0.000000 0.000000 7.792221 17.852738 -57.352072 120.677114 -56.121173 86.220476 23.786530 -18.011963 17.205049 0.000000 0.000000 0.000000 -7.125000 0.000000 0.000000 -2.717727 11.300574 -2.134986 0.000000 0.000000 0.000000 -3.003755 28.020323 24.147163 -96.057609 -59.860572 -65.243613 -27.647017 -6.791009 -5.501703 0.000000 0.000000 0.000000 7.125000 0.000000 0.000000 -0.704269 23.774195 -0.360565
-0.781934 20.713923 -6.604123 -2.101170 2.920580 3.908938 0.000000 0.000000 0.000000 -18.237520 -7.491003 -25.766645 17.825116 19.878419 83.627440 -0.040645 -3.802043 2.609117 0.093919 -1.975876 -5.438989 0.000000 0.000000 0.000000 18.996466 8.284507 -45.124028 -9.065456 -16.849700 56.316322 -0.390395 0.436229 -11.646603 -1.305104 7.236787 -20.418838 0.243322 -2.025144 18.089145 3.677570 -2.300255 2.103947 4.392638 -1.059566 -7.719964 -0.202646 0.464177 -18.865811 -2.851572 1.200013 13.884200 -0.766040 0.283397 7.378349 0.000000 0.000000 0.000000 7.765138 18.129705 -57.052933 119.803674 -56.356629 85.494374 23.876016 -17.933173 17.158319 0.000000 0.000000 0.000000 -7.125000 0.000000 0.000000 -2.654911 11.338042 -2.083479 0.000000 0.000000 0.000000 -2.910878 27.553215 24.110662 -95.824665 -59.871242 -65.042144 -27.664595 -6.775609 -5.373289 0.000000 0.000000 0.000000 7.125000 0.000000 0.000000 -0.722889 23.917870 -0.367628
-0.799201 20.726558 -6.456930 -2.520647 2.969861 3.697377 0.000000 0.000000 0.000000 -17.465726 -7.422889 -26.698029 18.314035 19.919253 85.062251 -0.046400 -3.940483 2.089036 0.090581 -1.940355 -5.340871 0.000000 0.000000 0.000000 19.717856 8.146509 -44.266036 -9.058815 -16.845443 56.293299 -0.423737 0.242038 -12.198118 -1.288791 7.193127 -20.288877 0.526299 -1.937414 18.261472 3.815704 -2.111784 2.123189 4.344277 -0.973470 -7.811610 -0.280602 0.365685 -18.817757 -2.819593 1.080473 13.868057 -0.756708 0.225739 7.362649 0.000000 0.000000 0.000000 7.745691 18.414249 -56.753199 118.966695 -56.570438 84.795938 23.949306 -17.917336 17.109924 0.000000 0.000000 0.000000 -7.125000 0.000000 0.000000 -2.602600 11.379625 -2.040159 0.000000 0.000000 0.000000 -2.836158 27.092733 24.102080 -95.628941 -59.879654 -64.872814 -27.694565 -6.762497 -5.246257 0.000000 0.000000 0.000000 7.125000 0.000000 0.000000 -0.750543 24.059376 -0.379207
-0.816467 20.739193 -6.309737 -2.940124 3.019141 3.485817 0.000000 0.000000 0.000000 -16.693931 -7.354776 -27.629414 18.802954 19.960087 86.497062 -0.052156 -4.078924 1.568956 0.087243 -1.904833 -5.242754 0.000000 0.000000 0.000000 20.439247 8.008511 -43.408044 -9.052174 -16.841186 56.270277 -0.457079 0.047846 -12.749634 -1.272477 7.149466 -20.158917 0.809277 -1.849684 18.433800 3.953838 -1.923314 2.142431 4.295917 -0.887375 -7.903257 -0.358558 0.267193 -18.769703 -2.787614 0.960934 13.851914 -0.747376 0.168080 7.346949 0.000000 0.000000 0.000000 7.726245 18.698793 -56.453465 118.129716 -56.784246 84.097502 24.022596 -17.901500 17.061529 0.000000 0.000000 0.000000 -7.125000 0.000000 0.000000 -2.550288 11.421208 -1.996839 0.000000 0.000000 0.000000 -2.761437 26.632252 24.093497 -95.433217 -59.888066 -64.703484 -27.724535 -6.749385 -5.119226 0.000000 0.000000 0.000000 7.125000 0.000000 0.000000 -0.778197 24.200882 -0.390786
-0.834012 20.749242 -6.162821 -3.352250 3.058762 3.298382 0.000000 0.000000 0.000000 -15.915940 -7.290679 -28.600331 19.267619 19.980087 87.857894 -0.055283 -4.233028 1.063342 0.084355 -1.873073 -5.155043 0.000000 0.000000 0.000000 21.141490 7.877714 -42.582747 -9.047008 -16.837869 56.252405 -0.493305 -0.180771 -13.326022 -1.276016 7.158950 -20.187150 1.079668 -1.759026 18.588904 4.089365 -1.731917 2.152357 4.249415 -0.799997 -7.993835 -0.431941 0.170175 -18.724127 -2.754545 0.841844 13.832822 -0.738259 0.110978 7.330950 0.000000 0.000000 0.000000 7.720047 18.995988 -56.155719 117.371909 -56.966535 83.462831 24.064345 -17.976332 17.016490 0.000000 0.000000 0.000000 -7.125000 0.000000 0.000000 -2.519068 11.463689 -1.970122 0.000000 0.000000 0.000000 -2.714005 26.177925 24.127097 -95.296621 -59.893700 -64.585332 -27.773865 -6.742449 -4.993455 0.000000 0.000000 0.000000 7.125000 0.000000 0.000000 -0.820254 24.340187 -0.409118
-0.851721 20.757756 -6.016071 -3.760012 3.092649 3.125271 0.000000 0.000000 0.000000 -15.134269 -7.228969 -29.594720 19.717883 19.987715 89.174801 -0.056850 -4.396433 0.566317 0.081732 -1.843546 -5.073511 0.000000 0.000000 0.000000 21.832366 7.751193 -41.776861 -9.042716 -16.835111 56.237590 -0.531244 -0.429828 -13.917179 -1.291342 7.199988 -20.309312 1.342586 -1.666630 18.733781 4.223345 -1.538781 2.156750 4.204018 -0.711858 -8.083779 -0.502608 0.074033 -18.680024 -2.720829 0.723020 13.811979 -0.729268 0.054205 7.314773 0.000000 0.000000 0.000000 7.721716 19.300694 -55.859153 116.661110 -57.130110 82.866020 24.087368 -18.104998 16.973442 0.000000 0.000000 0.000000 -7.125000 0.000000 0.000000 -2.500371 11.506703 -1.953264 0.000000 0.000000 0.000000 -2.682775 25.727252 24.185743 -95.195131 -59.897685 -64.497568 -27.834690 -6.739179 -4.868432 0.000000 0.000000 0.000000 7.125000 0.000000 0.000000 -0.870863 24.478185 -0.431459
-0.869431 20.766271 -5.869320 -4.167774 3.126535 2.952161 0.000000 0.000000 0.000000 -14.352598 -7.167258 -30.589109 20.168148 19.995344 90.491708 -0.058416 -4.559837 0.069293 0.079110 -1.814019 -4.991979 0.000000 0.000000 0.000000 22.523241 7.624673 -40.970976 -9.038425 -16.832352 56.222775 -0.569183 -0.678885 -14.508337 -1.306667 7.241026 -20.431474 1.605505 -1.574234 18.878658 4.357324 -1.345645 2.161143 4.158620 -0.623719 -8.173723 -0.573276 -0.022109 -18.635920 -2.687112 0.604196 13.791137 -0.720277 -0.002567 7.298596 0.000000 0.000000 0.000000 7.723385 19.605400 -55.562587 115.950311 -57.293684 82.269209 24.110390 -18.233665 16.930394 0.000000 0.000000 0.000000 -7.125000 0.000000 0.000000 -2.481674 11.549716 -1.936406 0.000000 0.000000 0.000000 -2.651545 25.276578 24.244389 -95.093642 -59.901669 -64.409804 -27.895516 -6.735910 -4.743410 0.000000 0.000000 0.000000 7.125000 0.000000 0.000000 -0.921471 24.616183 -0.453801
-0.887140 20.772290 -5.722828 -4.560588 3.155525 2.813253 0.000000 0.000000 0.000000 -13.577919 -7.120777 -31.630271 20.586328 19.985648 91.715353 -0.057770 -4.742167 -0.403604 0.077570 -1.796591 -4.943849 0.000000 0.000000 0.000000 23.186788 7.500694 -40.212476 -9.034652 -16.829946 56.209796 -0.608441 -0.945691 -15.098199 -1.336752 7.319586 -20.666200 1.853923 -1.480661 18.995760 4.485513 -1.153404 2.155297 4.113387 -0.536216 -8.257876 -0.638224 -0.116015 -18.596948 -2.653796 0.486784 13.764127 -0.712086 -0.058398 7.281548 0.000000 0.000000 0.000000 7.744497 19.927995 -55.271976 115.347205 -57.424940 81.761306 24.104318 -18.437351 16.905024 0.000000 0.000000 0.000000 -7.125000 0.000000 0.000000 -2.483644 11.577830 -1.936496 0.000000 0.000000 0.000000 -2.649974 24.829366 24.348724 -95.059311 -59.903018 -64.380087 -27.973572 -6.736524 -4.623331 0.000000 0.000000 0.000000 7.125000 0.000000 0.000000 -0.984838 24.748131 -0.481838
-0.904850 20.777194 -5.576452 -4.946723 3.182328 2.689627 0.000000 0.000000 0.000000 -12.806363 -7.081101 -32.692331 20.990173 19.968211 92.897327 -0.056135 -4.932953 -0.865720 0.076515 -1.784569 -4.910644 0.000000 0.000000 0.000000 23.838123 7.377851 -39.475147 -9.031110 -16.827699 56.197638 -0.648287 -1.220427 -15.687483 -1.373431 7.414911 -20.951221 2.095862 -1.386562 19.100450 4.611114 -0.961562 2.144876 4.068228 -0.448997 -8.339442 -0.700616 -0.208922 -18.560269 -2.620659 0.370003 13.734361 -0.704253 -0.113809 7.264111 0.000000 0.000000 0.000000 7.774296 20.258584 -54.984026 114.792216 -57.541754 81.293128 24.085246 -18.674556 16.887553 0.000000 0.000000 0.000000 -7.125000 0.000000 0.000000 -2.494849 11.599285 -1.944159 0.000000 0.000000 0.000000 -2.661655 24.383699 24.473474 -95.054985 -59.903188 -64.376307 -28.059327 -6.738874 -4.505460 0.000000 0.000000 0.000000 7.125000 0.000000 0.000000 -1.053905 24.877377 -0.512421
-0.922559 20.782098 -5.430076 -5.332859 3.209131 2.566001 0.000000 0.000000 0.000000 -12.034807 -7.041425 -33.754391 21.394018 19.950774 94.079301 -0.054501 -5.123739 -1.327836 0.075459 -1.772547 -4.877439 0.000000 0.000000 0.000000 24.489459 7.255009 -38.737818 -9.027568 -16.825451 56.185480 -0.688134 -1.495163 -16.276768 -1.410110 7.510236 -21.236242 2.337801 -1.292463 19.205141 4.736715 -0.769720 2.134454 4.023068 -0.361777 -8.421008 -0.763008 -0.301829 -18.523590 -2.587522 0.253223 13.704595 -0.696420 -0.169219 7.246674 0.000000 0.000000 0.000000 7.804096 20.589173 -54.696076 114.237227 -57.658569 80.824950 24.066174 -18.911761 16.870082 0.000000 0.000000 0.000000 -7.125000 0.000000 0.000000 -2.506054 11.620741 -1.951822 0.000000 0.000000 0.000000 -2.673337 23.938032 24.598224 -95.050660 -59.903358 -64.372527 -28.145082 -6.741224 -4.387590 0.000000 0.000000 0.000000 7.125000 0.000000 0.000000 -1.122972 25.006622 -0.543004
